<svg xmlns="http://www.w3.org/2000/svg" xmlns:xlink="http://www.w3.org/1999/xlink" xmlns:lucid="lucid" width="1302" height="1321"><g transform="translate(-1079 140.5)" lucid:page-tab-id="0_0"><path d="M1000-500h1500v2000H1000z" fill="#fff"/><path d="M1766 520c0 44.18-68.5 80-153 80s-153-35.82-153-80 68.5-80 153-80 153 35.82 153 80z" stroke="#3a414a" fill="#cfe4ff"/><use xlink:href="#a" transform="matrix(1,0,0,1,1465,445) translate(101.73339506172861 61.256944444444315)"/><use xlink:href="#b" transform="matrix(1,0,0,1,1465,445) translate(86.86919753086448 103.92361111111079)"/><path d="M1766 1080c0 44.18-68.5 80-153 80s-153-35.82-153-80 68.5-80 153-80 153 35.82 153 80z" stroke="#3a414a" fill="#c3f7c8"/><use xlink:href="#c" transform="matrix(1,0,0,1,1465,1005) translate(86.86919753086447 80.00694444444431)"/><path d="M1240.02 738l.2-9.03.6-9.84 1.02-9.65 1.4-9.47 1.77-9.27 2.14-9.1 2.5-8.9 2.83-8.74 3.17-8.55 3.5-8.34 3.85-8.14 4.14-7.94 4.46-7.74 4.78-7.52 5.07-7.3 5.36-7.06 5.66-6.82 5.92-6.6 6.2-6.3 6.46-6.08 6.7-5.8 6.97-5.5 7.2-5.24 7.44-4.93 7.66-4.64 7.87-4.34 8.1-4 8.27-3.7 8.5-3.36 8.68-3.03 8.87-2.68 9.06-2.33 9.24-1.97 9.44-1.6 9.6-1.2 6.38-.54" stroke="#3a414a" stroke-width="2" stroke-linejoin="round" fill="none"/><path d="M1241 738l-.03 1h-1.94l.02-1.05z" stroke="#3a414a" stroke-width=".05" fill="#3a414a"/><path d="M1456.27 520.13l-14.07 5.22-.38-9.26z" stroke="#3a414a" stroke-width="2" fill="#3a414a"/><path d="M1458.5 1079.98l-8.98-.2-9.8-.6-9.58-1-9.4-1.4-9.23-1.76-9.03-2.12-8.86-2.47-8.66-2.82-8.5-3.15-8.3-3.5-8.1-3.8-7.93-4.15-7.7-4.46-7.53-4.76-7.3-5.08-7.08-5.37-6.86-5.67-6.62-5.96-6.37-6.24-6.1-6.5-5.86-6.8-5.6-7.03-5.3-7.3-5-7.54-4.72-7.8-4.4-8-4.1-8.23-3.75-8.45-3.43-8.67-3.1-8.87-2.72-9.06-2.38-9.26-2-9.46-1.64-9.64-1.24-9.82-.58-6.9" stroke="#3a414a" stroke-width="2" stroke-linejoin="round" fill="none"/><path d="M1459.52 1079.03l-.02.97v.98l-1.05-.03.04-1.95z" stroke="#3a414a" stroke-width=".05" fill="#3a414a"/><path d="M1240.13 860.9l5.2 14.07-9.26.37z" stroke="#3a414a" stroke-width="2" fill="#3a414a"/><path d="M1959.98 842l-.26 12.45-.84 13.33-1.38 13.13-1.9 12.86-2.38 12.5-2.84 12.1-3.25 11.66-3.63 11.16-3.96 10.66-4.25 10.12-4.53 9.6-4.73 9.06-4.93 8.53-5.08 8.03-5.23 7.53-5.37 7.07-5.46 6.6-5.56 6.18-5.63 5.76-5.72 5.38-5.8 5-5.86 4.65-5.94 4.3-6.02 4-6.1 3.7-6.16 3.4-6.27 3.1-6.35 2.83-6.48 2.57-6.6 2.3-6.73 2.03-6.88 1.77-7.05 1.5-7.22 1.22-7.44.93-1.17.1" stroke="#3a414a" stroke-width="2" stroke-linejoin="round" fill="none"/><path d="M1960.95 842.05L1959 842l.03-1h1.94z" stroke="#3a414a" stroke-width=".05" fill="#3a414a"/><path d="M1769.73 1079.84l14.02-5.34.46 9.26z" stroke="#3a414a" stroke-width="2" fill="#3a414a"/><path d="M1767.5 520.02l7.3.15 8.06.5 7.86.84 7.67 1.14 7.48 1.43 7.34 1.72 7.18 2 7.04 2.28 6.92 2.57 6.8 2.86 6.66 3.14 6.55 3.43 6.45 3.72 6.33 4 6.22 4.34 6.1 4.64 6 4.96 5.88 5.28 5.74 5.63 5.6 5.96 5.44 6.33 5.3 6.68 5.1 7.04 4.9 7.4 4.7 7.76 4.48 8.12 4.2 8.47 3.93 8.82 3.63 9.16 3.3 9.48 2.95 9.8 2.6 10.06 2.18 10.33 1.8 10.56 1.36 10.78.77 9.13" stroke="#3a414a" stroke-width="2" stroke-linejoin="round" fill="none"/><path d="M1767.55 519.05l-.04 1.95-1.02-.02.02-.98v-.98z" stroke="#3a414a" stroke-width=".05" fill="#3a414a"/><path d="M1959.88 735.77l-5.15-14.1 9.26-.33z" stroke="#3a414a" stroke-width="2" fill="#3a414a"/><path d="M1120 746a6 6 0 0 1 6-6h228a6 6 0 0 1 6 6v104.67a6 6 0 0 1-6 6h-228a6 6 0 0 1-6-6z" stroke="#3a414a" stroke-width="2" fill="#fff"/><use xlink:href="#d" transform="matrix(1,0,0,1,1125,745) translate(0 17.77777777777777)"/><use xlink:href="#e" transform="matrix(1,0,0,1,1125,745) translate(73.88888888888886 17.77777777777777)"/><use xlink:href="#f" transform="matrix(1,0,0,1,1125,745) translate(0 44.44444444444443)"/><use xlink:href="#g" transform="matrix(1,0,0,1,1125,745) translate(95.92592592592587 44.44444444444443)"/><use xlink:href="#h" transform="matrix(1,0,0,1,1125,745) translate(131.66666666666657 44.44444444444443)"/><use xlink:href="#i" transform="matrix(1,0,0,1,1125,745) translate(0 71.11111111111109)"/><use xlink:href="#j" transform="matrix(1,0,0,1,1125,745) translate(53.02469135802467 71.11111111111109)"/><use xlink:href="#k" transform="matrix(1,0,0,1,1125,745) translate(140.43209876543204 71.11111111111109)"/><use xlink:href="#l" transform="matrix(1,0,0,1,1125,745) translate(0 97.77777777777774)"/><use xlink:href="#m" transform="matrix(1,0,0,1,1125,745) translate(78.95061728395058 97.77777777777774)"/><path d="M1840 746a6 6 0 0 1 6-6h228a6 6 0 0 1 6 6v88a6 6 0 0 1-6 6h-228a6 6 0 0 1-6-6z" stroke="#3a414a" stroke-width="2" fill="#fff"/><use xlink:href="#d" transform="matrix(1,0,0,1,1845,745) translate(0 17.77777777777777)"/><use xlink:href="#n" transform="matrix(1,0,0,1,1845,745) translate(73.88888888888886 17.77777777777777)"/><use xlink:href="#f" transform="matrix(1,0,0,1,1845,745) translate(0 44.44444444444443)"/><use xlink:href="#g" transform="matrix(1,0,0,1,1845,745) translate(95.92592592592587 44.44444444444443)"/><use xlink:href="#h" transform="matrix(1,0,0,1,1845,745) translate(131.66666666666657 44.44444444444443)"/><use xlink:href="#i" transform="matrix(1,0,0,1,1845,745) translate(0 71.11111111111109)"/><use xlink:href="#j" transform="matrix(1,0,0,1,1845,745) translate(53.02469135802467 71.11111111111109)"/><use xlink:href="#o" transform="matrix(1,0,0,1,1845,745) translate(140.43209876543204 71.11111111111109)"/><path d="M1766-40c0 44.18-68.5 80-153 80s-153-35.82-153-80 68.5-80 153-80 153 35.82 153 80z" stroke="#3a414a" fill="#ffd9d9"/><use xlink:href="#p" transform="matrix(1,0,0,1,1465,-115) translate(31.066728395062263 80.00694444444431)"/><use xlink:href="#q" transform="matrix(1,0,0,1,1465,-115) translate(109.28895061728414 80.00694444444431)"/><path d="M1230.02 138l.13-6.4.45-7.12.73-6.9.98-6.67 1.25-6.5 1.48-6.3 1.73-6.18 1.96-6.04 2.2-5.92 2.44-5.8 2.7-5.72 2.93-5.63 3.2-5.55 3.48-5.48 3.77-5.42 4.07-5.37 4.4-5.3 4.73-5.26 5.1-5.2 5.47-5.15 5.9-5.08 6.32-5.03 6.8-4.93L1309.5.2l7.8-4.7 8.34-4.6 8.9-4.42 9.48-4.22 10.07-3.98 10.66-3.7 11.23-3.4 11.76-3.02 12.27-2.6 12.7-2.15 13.1-1.64 13.34-1.12 1.84-.08" stroke="#3a414a" stroke-width="2" stroke-linejoin="round" fill="none"/><path d="M1231 138l-.03 1h-1.94l.02-1.05z" stroke="#3a414a" stroke-width=".05" fill="#3a414a"/><path d="M1456.27-39.9l-14.12 5.06-.28-9.26z" stroke="#3a414a" stroke-width="2" fill="#3a414a"/><path d="M1458.5 519.98l-12.24-.26-13.13-.82-12.9-1.36-12.63-1.86-12.25-2.34-11.83-2.77-11.35-3.17-10.84-3.52-10.3-3.83-9.75-4.1-9.2-4.33-8.68-4.53-8.13-4.7-7.63-4.84-7.14-4.96-6.66-5.06-6.23-5.15-5.8-5.24-5.4-5.3-5.03-5.35-4.68-5.4-4.36-5.5-4.03-5.53-3.7-5.6-3.45-5.7-3.17-5.75-2.9-5.83-2.63-5.95-2.4-6.03-2.14-6.15-1.88-6.28-1.65-6.43-1.4-6.58-1.14-6.77-.87-6.9" stroke="#3a414a" stroke-width="2" stroke-linejoin="round" fill="none"/><path d="M1459.52 519.02l-.02.98v.98l-1.05-.03.04-1.95z" stroke="#3a414a" stroke-width=".05" fill="#3a414a"/><path d="M1230.17 340.9l5.37 14-9.26.5z" stroke="#3a414a" stroke-width="2" fill="#3a414a"/><path d="M1100 146a6 6 0 0 1 6-6h248a6 6 0 0 1 6 6v184.67a6 6 0 0 1-6 6h-248a6 6 0 0 1-6-6z" stroke="#3a414a" stroke-width="2" fill="#fff"/><use xlink:href="#r" transform="matrix(1,0,0,1,1105,145) translate(0 17.77777777777777)"/><use xlink:href="#s" transform="matrix(1,0,0,1,1105,145) translate(73.88888888888886 17.77777777777777)"/><use xlink:href="#t" transform="matrix(1,0,0,1,1105,145) translate(0 44.44444444444443)"/><use xlink:href="#u" transform="matrix(1,0,0,1,1105,145) translate(95.92592592592587 44.44444444444443)"/><use xlink:href="#v" transform="matrix(1,0,0,1,1105,145) translate(131.66666666666657 44.44444444444443)"/><use xlink:href="#w" transform="matrix(1,0,0,1,1105,145) translate(0 71.11111111111109)"/><use xlink:href="#x" transform="matrix(1,0,0,1,1105,145) translate(0 97.77777777777774)"/><use xlink:href="#y" transform="matrix(1,0,0,1,1105,145) translate(53.02469135802467 97.77777777777774)"/><use xlink:href="#z" transform="matrix(1,0,0,1,1105,145) translate(140.43209876543204 97.77777777777774)"/><use xlink:href="#A" transform="matrix(1,0,0,1,1105,145) translate(0 124.4444444444444)"/><use xlink:href="#B" transform="matrix(1,0,0,1,1105,145) translate(54.32098765432096 124.4444444444444)"/><use xlink:href="#C" transform="matrix(1,0,0,1,1105,145) translate(101.17283950617279 124.4444444444444)"/><use xlink:href="#D" transform="matrix(1,0,0,1,1105,145) translate(118.395061728395 124.4444444444444)"/><use xlink:href="#E" transform="matrix(1,0,0,1,1105,145) translate(0 151.11111111111106)"/><use xlink:href="#F" transform="matrix(1,0,0,1,1105,145) translate(80.06172839506168 151.11111111111106)"/><use xlink:href="#G" transform="matrix(1,0,0,1,1105,145) translate(168.8888888888888 151.11111111111106)"/><use xlink:href="#H" transform="matrix(1,0,0,1,1105,145) translate(0 177.77777777777771)"/><use xlink:href="#I" transform="matrix(1,0,0,1,1105,145) translate(77.65432098765429 177.77777777777771)"/><path d="M2230 562v512a6 6 0 0 1-6 6h-439" stroke="#3a414a" stroke-width="2" fill="none"/><path d="M2230.97 562.03h-1.94V561h1.94z" stroke="#3a414a" stroke-width=".05" fill="#3a414a"/><path d="M1769.74 1080l14.26-4.63v9.27z" stroke="#3a414a" stroke-width="2" fill="#3a414a"/><path d="M1767.5-40H2224a6 6 0 0 1 6 6v454.5" stroke="#3a414a" stroke-width="2" fill="none"/><path d="M1767.53-39.02h-1.05l.02-.98v-.98h1.03z" stroke="#3a414a" stroke-width=".05" fill="#3a414a"/><path d="M2230 435.76l-4.64-14.26h9.28z" stroke="#3a414a" stroke-width="2" fill="#3a414a"/><path d="M2100 446a6 6 0 0 1 6-6h248a6 6 0 0 1 6 6v108a6 6 0 0 1-6 6h-248a6 6 0 0 1-6-6z" stroke="#3a414a" stroke-width="2" fill="#fff"/><g><use xlink:href="#d" transform="matrix(1,0,0,1,2105,445) translate(0 17.77777777777777)"/><use xlink:href="#J" transform="matrix(1,0,0,1,2105,445) translate(73.88888888888886 17.77777777777777)"/><use xlink:href="#f" transform="matrix(1,0,0,1,2105,445) translate(0 44.44444444444443)"/><use xlink:href="#g" transform="matrix(1,0,0,1,2105,445) translate(95.92592592592587 44.44444444444443)"/><use xlink:href="#h" transform="matrix(1,0,0,1,2105,445) translate(131.66666666666657 44.44444444444443)"/><use xlink:href="#i" transform="matrix(1,0,0,1,2105,445) translate(0 71.11111111111109)"/><use xlink:href="#j" transform="matrix(1,0,0,1,2105,445) translate(53.02469135802467 71.11111111111109)"/><use xlink:href="#o" transform="matrix(1,0,0,1,2105,445) translate(140.43209876543204 71.11111111111109)"/></g><path d="M1362 238.35l13.45.3 14.32.9 14.1 1.47 13.76 2.03 13.4 2.55 12.92 3.03 12.42 3.47 11.87 3.86 11.3 4.2 10.7 4.5 10.1 4.75 9.54 5 8.95 5.16 8.4 5.32 7.86 5.47 7.34 5.58 6.87 5.68 6.42 5.78 5.97 5.84 5.55 5.92 5.17 6 4.8 6.06 4.46 6.13 4.12 6.2 3.8 6.28 3.5 6.38 3.22 6.46 2.92 6.56 2.64 6.68 2.37 6.8 2.1 6.94 1.82 7.1 1.54 7.28 1.28 7.48.97 7.68.15 1.87" stroke="#3a414a" stroke-width="2" stroke-linejoin="round" fill="none"/><path d="M1362.05 237.38l-.04 1.95-1-.02v-1.94z" stroke="#3a414a" stroke-width=".05" fill="#3a414a"/><path d="M1612.84 436.27l-5.32-14.03 9.26-.45z" stroke="#3a414a" stroke-width="2" fill="#3a414a"/><path d="M1840 146a6 6 0 0 1 6-6h248a6 6 0 0 1 6 6v158a6 6 0 0 1-6 6h-248a6 6 0 0 1-6-6z" stroke="#3a414a" stroke-width="2" fill="#fff"/><g><use xlink:href="#d" transform="matrix(1,0,0,1,1845,145) translate(0 17.77777777777777)"/><use xlink:href="#K" transform="matrix(1,0,0,1,1845,145) translate(73.88888888888886 17.77777777777777)"/><use xlink:href="#f" transform="matrix(1,0,0,1,1845,145) translate(0 44.44444444444443)"/><use xlink:href="#g" transform="matrix(1,0,0,1,1845,145) translate(95.92592592592587 44.44444444444443)"/><use xlink:href="#L" transform="matrix(1,0,0,1,1845,145) translate(131.66666666666657 44.44444444444443)"/><use xlink:href="#M" transform="matrix(1,0,0,1,1845,145) translate(0 71.11111111111109)"/><use xlink:href="#i" transform="matrix(1,0,0,1,1845,145) translate(0 97.77777777777774)"/><use xlink:href="#j" transform="matrix(1,0,0,1,1845,145) translate(53.02469135802467 97.77777777777774)"/><use xlink:href="#N" transform="matrix(1,0,0,1,1845,145) translate(140.43209876543204 97.77777777777774)"/><use xlink:href="#O" transform="matrix(1,0,0,1,1845,145) translate(177.46913580246905 97.77777777777774)"/><use xlink:href="#P" transform="matrix(1,0,0,1,1845,145) translate(0 124.4444444444444)"/><use xlink:href="#Q" transform="matrix(1,0,0,1,1845,145) translate(82.59259259259255 124.4444444444444)"/><use xlink:href="#R" transform="matrix(1,0,0,1,1845,145) translate(131.97530864197523 124.4444444444444)"/><use xlink:href="#S" transform="matrix(1,0,0,1,1845,145) translate(192.46913580246903 124.4444444444444)"/><use xlink:href="#T" transform="matrix(1,0,0,1,1845,145) translate(0 151.11111111111106)"/><use xlink:href="#U" transform="matrix(1,0,0,1,1845,145) translate(35.802469135802454 151.11111111111106)"/><use xlink:href="#V" transform="matrix(1,0,0,1,1845,145) translate(115.86419753086413 151.11111111111106)"/></g><path d="M1969.98 312l-.18 8.77-.6 9.6-1 9.44-1.37 9.27-1.73 9.1-2.1 8.9-2.42 8.7-2.77 8.53-3.1 8.32-3.4 8.12-3.72 7.9-4 7.7-4.32 7.44-4.58 7.22-4.85 6.98-5.1 6.74-5.37 6.47-5.6 6.2-5.82 5.96-6.05 5.68-6.27 5.4-6.46 5.12-6.65 4.83-6.85 4.54-7.03 4.26-7.2 3.96-7.37 3.66-7.55 3.36-7.7 3.05-7.88 2.74-8.04 2.43-8.2 2.1-8.38 1.78-8.54 1.45-8.7 1.1-4.1.34" stroke="#3a414a" stroke-width="2" stroke-linejoin="round" fill="none"/><path d="M1970.95 312.05L1969 312l.03-1h1.94z" stroke="#3a414a" stroke-width=".05" fill="#3a414a"/><path d="M1769.73 519.86l14.05-5.28.4 9.26z" stroke="#3a414a" stroke-width="2" fill="#3a414a"/><path d="M1767.5-39.98l9.4.2 10.3.65 10.14 1.06 9.96 1.47 9.76 1.86 9.52 2.23 9.26 2.58 9 2.92 8.68 3.23 8.37 3.52 8.04 3.8 7.72 4.02 7.38 4.26 7.04 4.47 6.7 4.65 6.35 4.82 6 4.98 5.7 5.12 5.36 5.25 5.03 5.37 4.74 5.47 4.43 5.6 4.14 5.7 3.85 5.78 3.56 5.9 3.3 6 3.03 6.1 2.75 6.2 2.5 6.32 2.24 6.44 1.97 6.56 1.72 6.7 1.44 6.84 1.18 7 .9 7.15.03.28" stroke="#3a414a" stroke-width="2" stroke-linejoin="round" fill="none"/><path d="M1767.55-40.95l-.04 1.95-1.02-.02.02-.98v-.98z" stroke="#3a414a" stroke-width=".05" fill="#3a414a"/><path d="M1969.83 135.77l-5.36-14 9.26-.5z" stroke="#3a414a" stroke-width="2" fill="#3a414a"/><defs><path fill="#3a414a" d="M212-179c-10-28-35-45-73-45-59 0-87 40-87 99 0 60 29 101 89 101 43 0 62-24 78-52l27 14C228-24 195 4 139 4 59 4 22-46 18-125c-6-104 99-153 187-111 19 9 31 26 39 46" id="W"/><path fill="#3a414a" d="M127-220V0H93v-220H8v-28h204v28h-85" id="X"/><path fill="#3a414a" d="M233-177c-1 41-23 64-60 70L243 0h-38l-65-103H63V0H30v-248c88 3 205-21 203 71zM63-129c60-2 137 13 137-47 0-61-80-42-137-45v92" id="Y"/><path fill="#3a414a" d="M30 0v-248h33v221h125V0H30" id="Z"/><g id="a"><use transform="matrix(0.09876543209876498,0,0,0.09876543209876498,0,0)" xlink:href="#W"/><use transform="matrix(0.09876543209876498,0,0,0.09876543209876498,25.58024691358013,0)" xlink:href="#X"/><use transform="matrix(0.09876543209876498,0,0,0.09876543209876498,47.20987654320966,0)" xlink:href="#Y"/><use transform="matrix(0.09876543209876498,0,0,0.09876543209876498,72.79012345678979,0)" xlink:href="#Z"/></g><path fill="#3a414a" d="M30 0v-248h187v28H63v79h144v27H63v87h162V0H30" id="aa"/><path fill="#3a414a" d="M205 0l-28-72H64L36 0H1l101-248h38L239 0h-34zm-38-99l-47-123c-12 45-31 82-46 123h93" id="ab"/><path fill="#3a414a" d="M30-248c118-7 216 8 213 122C240-48 200 0 122 0H30v-248zM63-27c89 8 146-16 146-99s-60-101-146-95v194" id="ac"/><path fill="#3a414a" d="M137-103V0h-34v-103L8-248h37l75 118 75-118h37" id="ad"/><g id="b"><use transform="matrix(0.09876543209876498,0,0,0.09876543209876498,0,0)" xlink:href="#Y"/><use transform="matrix(0.09876543209876498,0,0,0.09876543209876498,25.58024691358013,0)" xlink:href="#aa"/><use transform="matrix(0.09876543209876498,0,0,0.09876543209876498,49.28395061728372,0)" xlink:href="#ab"/><use transform="matrix(0.09876543209876498,0,0,0.09876543209876498,72.98765432098732,0)" xlink:href="#ac"/><use transform="matrix(0.09876543209876498,0,0,0.09876543209876498,98.56790123456744,0)" xlink:href="#ad"/></g><g id="c"><use transform="matrix(0.098765432098765,0,0,0.098765432098765,0,0)" xlink:href="#Y"/><use transform="matrix(0.098765432098765,0,0,0.098765432098765,25.580246913580133,0)" xlink:href="#aa"/><use transform="matrix(0.098765432098765,0,0,0.098765432098765,49.283950617283736,0)" xlink:href="#ab"/><use transform="matrix(0.098765432098765,0,0,0.098765432098765,72.98765432098733,0)" xlink:href="#ac"/><use transform="matrix(0.098765432098765,0,0,0.098765432098765,98.56790123456747,0)" xlink:href="#ad"/></g><path fill="#3a414a" d="M24 0v-248h195v40H76v63h132v40H76v65h150V0H24" id="ae"/><path fill="#3a414a" d="M128 0H69L1-190h53L99-40l48-150h52" id="af"/><path fill="#3a414a" d="M185-48c-13 30-37 53-82 52C43 2 14-33 14-96s30-98 90-98c62 0 83 45 84 108H66c0 31 8 55 39 56 18 0 30-7 34-22zm-45-69c5-46-57-63-70-21-2 6-4 13-4 21h74" id="ag"/><path fill="#3a414a" d="M135-194c87-1 58 113 63 194h-50c-7-57 23-157-34-157-59 0-34 97-39 157H25l-1-190h47c2 12-1 28 3 38 12-26 28-41 61-42" id="ah"/><path fill="#3a414a" d="M115-3C79 11 28 4 28-45v-112H4v-33h27l15-45h31v45h36v33H77v99c-1 23 16 31 38 25v30" id="ai"/><path fill="#3a414a" d="M35-132v-50h50v50H35zM35 0v-49h50V0H35" id="aj"/><g id="d"><use transform="matrix(0.06172839506172837,0,0,0.06172839506172837,0,0)" xlink:href="#ae"/><use transform="matrix(0.06172839506172837,0,0,0.06172839506172837,14.81481481481481,0)" xlink:href="#af"/><use transform="matrix(0.06172839506172837,0,0,0.06172839506172837,27.160493827160483,0)" xlink:href="#ag"/><use transform="matrix(0.06172839506172837,0,0,0.06172839506172837,39.506172839506156,0)" xlink:href="#ah"/><use transform="matrix(0.06172839506172837,0,0,0.06172839506172837,53.02469135802467,0)" xlink:href="#ai"/><use transform="matrix(0.06172839506172837,0,0,0.06172839506172837,60.370370370370345,0)" xlink:href="#aj"/></g><path fill="#3a414a" d="M143 0L79-87 56-68V0H24v-261h32v163l83-92h37l-77 82L181 0h-38" id="ak"/><path fill="#3a414a" d="M100-194c63 0 86 42 84 106H49c0 40 14 67 53 68 26 1 43-12 49-29l28 8c-11 28-37 45-77 45C44 4 14-33 15-96c1-61 26-98 85-98zm52 81c6-60-76-77-97-28-3 7-6 17-6 28h103" id="al"/><path fill="#3a414a" d="M179-190L93 31C79 59 56 82 12 73V49c39 6 53-20 64-50L1-190h34L92-34l54-156h33" id="am"/><path fill="#3a414a" d="M-5 72V49h209v23H-5" id="an"/><path fill="#3a414a" d="M115-194c55 1 70 41 70 98S169 2 115 4C84 4 66-9 55-30l1 105H24l-1-265h31l2 30c10-21 28-34 59-34zm-8 174c40 0 45-34 45-75s-6-73-45-74c-42 0-51 32-51 76 0 43 10 73 51 73" id="ao"/><path fill="#3a414a" d="M114-163C36-179 61-72 57 0H25l-1-190h30c1 12-1 29 2 39 6-27 23-49 58-41v29" id="ap"/><path fill="#3a414a" d="M135-143c-3-34-86-38-87 0 15 53 115 12 119 90S17 21 10-45l28-5c4 36 97 45 98 0-10-56-113-15-118-90-4-57 82-63 122-42 12 7 21 19 24 35" id="aq"/><path fill="#3a414a" d="M87 75C49 33 22-17 22-94c0-76 28-126 65-167h31c-38 41-64 92-64 168S80 34 118 75H87" id="ar"/><path fill="#3a414a" d="M33-261c38 41 65 92 65 168S71 34 33 75H2C39 34 66-17 66-93S39-220 2-261h31" id="as"/><g id="e"><use transform="matrix(0.06172839506172837,0,0,0.06172839506172837,0,0)" xlink:href="#ak"/><use transform="matrix(0.06172839506172837,0,0,0.06172839506172837,11.111111111111107,0)" xlink:href="#al"/><use transform="matrix(0.06172839506172837,0,0,0.06172839506172837,23.45679012345678,0)" xlink:href="#am"/><use transform="matrix(0.06172839506172837,0,0,0.06172839506172837,34.567901234567884,0)" xlink:href="#an"/><use transform="matrix(0.06172839506172837,0,0,0.06172839506172837,46.913580246913554,0)" xlink:href="#ao"/><use transform="matrix(0.06172839506172837,0,0,0.06172839506172837,59.259259259259224,0)" xlink:href="#ap"/><use transform="matrix(0.06172839506172837,0,0,0.06172839506172837,66.6049382716049,0)" xlink:href="#al"/><use transform="matrix(0.06172839506172837,0,0,0.06172839506172837,78.95061728395056,0)" xlink:href="#aq"/><use transform="matrix(0.06172839506172837,0,0,0.06172839506172837,90.06172839506166,0)" xlink:href="#aq"/><use transform="matrix(0.06172839506172837,0,0,0.06172839506172837,101.17283950617278,0)" xlink:href="#ar"/><use transform="matrix(0.06172839506172837,0,0,0.06172839506172837,108.51851851851845,0)" xlink:href="#as"/></g><path fill="#3a414a" d="M67-125c0 53 21 87 73 88 37 1 54-22 65-47l45 17C233-25 199 4 140 4 58 4 20-42 15-125 8-235 124-281 211-232c18 10 29 29 36 50l-46 12c-8-25-30-41-62-41-52 0-71 34-72 86" id="at"/><path fill="#3a414a" d="M110-194c64 0 96 36 96 99 0 64-35 99-97 99-61 0-95-36-95-99 0-62 34-99 96-99zm-1 164c35 0 45-28 45-65 0-40-10-65-43-65-34 0-45 26-45 65 0 36 10 65 43 65" id="au"/><path fill="#3a414a" d="M144 0l-44-69L55 0H2l70-98-66-92h53l41 62 40-62h54l-67 91 71 99h-54" id="av"/><g id="f"><use transform="matrix(0.06172839506172837,0,0,0.06172839506172837,0,0)" xlink:href="#at"/><use transform="matrix(0.06172839506172837,0,0,0.06172839506172837,15.987654320987648,0)" xlink:href="#au"/><use transform="matrix(0.06172839506172837,0,0,0.06172839506172837,29.506172839506164,0)" xlink:href="#ah"/><use transform="matrix(0.06172839506172837,0,0,0.06172839506172837,43.024691358024675,0)" xlink:href="#ai"/><use transform="matrix(0.06172839506172837,0,0,0.06172839506172837,50.37037037037035,0)" xlink:href="#ag"/><use transform="matrix(0.06172839506172837,0,0,0.06172839506172837,62.71604938271602,0)" xlink:href="#av"/><use transform="matrix(0.06172839506172837,0,0,0.06172839506172837,75.06172839506169,0)" xlink:href="#ai"/><use transform="matrix(0.06172839506172837,0,0,0.06172839506172837,82.40740740740736,0)" xlink:href="#aj"/></g><path fill="#3a414a" d="M24 0v-261h32V0H24" id="aw"/><path fill="#3a414a" d="M101-234c-31-9-42 10-38 44h38v23H63V0H32v-167H5v-23h27c-7-52 17-82 69-68v24" id="ax"/><path fill="#3a414a" d="M59-47c-2 24 18 29 38 22v24C64 9 27 4 27-40v-127H5v-23h24l9-43h21v43h35v23H59v120" id="ay"/><g id="g"><use transform="matrix(0.06172839506172837,0,0,0.06172839506172837,0,0)" xlink:href="#aw"/><use transform="matrix(0.06172839506172837,0,0,0.06172839506172837,4.876543209876541,0)" xlink:href="#al"/><use transform="matrix(0.06172839506172837,0,0,0.06172839506172837,17.222222222222214,0)" xlink:href="#ax"/><use transform="matrix(0.06172839506172837,0,0,0.06172839506172837,23.39506172839505,0)" xlink:href="#ay"/></g><path fill="#3a414a" d="M96-169c-40 0-48 33-48 73s9 75 48 75c24 0 41-14 43-38l32 2c-6 37-31 61-74 61-59 0-76-41-82-99-10-93 101-131 147-64 4 7 5 14 7 22l-32 3c-4-21-16-35-41-35" id="az"/><g id="h"><use transform="matrix(0.06172839506172837,0,0,0.06172839506172837,0,0)" xlink:href="#az"/><use transform="matrix(0.06172839506172837,0,0,0.06172839506172837,11.111111111111107,0)" xlink:href="#ay"/><use transform="matrix(0.06172839506172837,0,0,0.06172839506172837,17.283950617283942,0)" xlink:href="#ap"/><use transform="matrix(0.06172839506172837,0,0,0.06172839506172837,24.62962962962962,0)" xlink:href="#aw"/></g><path fill="#3a414a" d="M169-182c-1-43-94-46-97-3 18 66 151 10 154 114 3 95-165 93-204 36-6-8-10-19-12-30l50-8c3 46 112 56 116 5-17-69-150-10-154-114-4-87 153-88 188-35 5 8 8 18 10 28" id="aA"/><path fill="#3a414a" d="M25-224v-37h50v37H25zM25 0v-190h50V0H25" id="aB"/><path fill="#3a414a" d="M88-194c31-1 46 15 58 34l-1-101h50l1 261h-48c-2-10 0-23-3-31C134-8 116 4 84 4 32 4 16-41 15-95c0-56 19-97 73-99zm17 164c33 0 40-30 41-66 1-37-9-64-41-64s-38 30-39 65c0 43 13 65 39 65" id="aC"/><g id="i"><use transform="matrix(0.06172839506172837,0,0,0.06172839506172837,0,0)" xlink:href="#aA"/><use transform="matrix(0.06172839506172837,0,0,0.06172839506172837,14.81481481481481,0)" xlink:href="#aB"/><use transform="matrix(0.06172839506172837,0,0,0.06172839506172837,20.987654320987644,0)" xlink:href="#aC"/><use transform="matrix(0.06172839506172837,0,0,0.06172839506172837,34.506172839506156,0)" xlink:href="#ag"/></g><path fill="#3a414a" d="M121-226c-27-7-43 5-38 36h38v33H83V0H34v-157H6v-33h28c-9-59 32-81 87-68v32" id="aD"/><path fill="#3a414a" d="M190-63c-7 42-38 67-86 67-59 0-84-38-90-98-12-110 154-137 174-36l-49 2c-2-19-15-32-35-32-30 0-35 28-38 64-6 74 65 87 74 30" id="aE"/><path fill="#3a414a" d="M137-138c1-29-70-34-71-4 15 46 118 7 119 86 1 83-164 76-172 9l43-7c4 19 20 25 44 25 33 8 57-30 24-41C81-84 22-81 20-136c-2-80 154-74 161-7" id="aF"/><g id="j"><use transform="matrix(0.06172839506172837,0,0,0.06172839506172837,0,0)" xlink:href="#ae"/><use transform="matrix(0.06172839506172837,0,0,0.06172839506172837,14.81481481481481,0)" xlink:href="#aD"/><use transform="matrix(0.06172839506172837,0,0,0.06172839506172837,22.160493827160487,0)" xlink:href="#aD"/><use transform="matrix(0.06172839506172837,0,0,0.06172839506172837,29.506172839506164,0)" xlink:href="#ag"/><use transform="matrix(0.06172839506172837,0,0,0.06172839506172837,41.85185185185183,0)" xlink:href="#aE"/><use transform="matrix(0.06172839506172837,0,0,0.06172839506172837,54.1975308641975,0)" xlink:href="#ai"/><use transform="matrix(0.06172839506172837,0,0,0.06172839506172837,61.54320987654318,0)" xlink:href="#aF"/><use transform="matrix(0.06172839506172837,0,0,0.06172839506172837,73.88888888888886,0)" xlink:href="#aj"/></g><path fill="#3a414a" d="M106-169C34-169 62-67 57 0H25v-261h32l-1 103c12-21 28-36 61-36 89 0 53 116 60 194h-32v-121c2-32-8-49-39-48" id="aG"/><path fill="#3a414a" d="M100-194c62-1 85 37 85 99 1 63-27 99-86 99S16-35 15-95c0-66 28-99 85-99zM99-20c44 1 53-31 53-75 0-43-8-75-51-75s-53 32-53 75 10 74 51 75" id="aH"/><path fill="#3a414a" d="M206 0h-36l-40-164L89 0H53L-1-190h32L70-26l43-164h34l41 164 42-164h31" id="aI"/><g id="k"><use transform="matrix(0.06172839506172837,0,0,0.06172839506172837,0,0)" xlink:href="#aq"/><use transform="matrix(0.06172839506172837,0,0,0.06172839506172837,11.111111111111107,0)" xlink:href="#aG"/><use transform="matrix(0.06172839506172837,0,0,0.06172839506172837,23.45679012345678,0)" xlink:href="#aH"/><use transform="matrix(0.06172839506172837,0,0,0.06172839506172837,35.802469135802454,0)" xlink:href="#aI"/></g><g id="l"><use transform="matrix(0.06172839506172837,0,0,0.06172839506172837,0,0)" xlink:href="#ao"/><use transform="matrix(0.06172839506172837,0,0,0.06172839506172837,12.345679012345673,0)" xlink:href="#ap"/><use transform="matrix(0.06172839506172837,0,0,0.06172839506172837,19.69135802469135,0)" xlink:href="#al"/><use transform="matrix(0.06172839506172837,0,0,0.06172839506172837,32.037037037037024,0)" xlink:href="#aq"/><use transform="matrix(0.06172839506172837,0,0,0.06172839506172837,43.14814814814813,0)" xlink:href="#al"/><use transform="matrix(0.06172839506172837,0,0,0.06172839506172837,55.49382716049381,0)" xlink:href="#ay"/><use transform="matrix(0.06172839506172837,0,0,0.06172839506172837,61.66666666666664,0)" xlink:href="#aq"/></g><path fill="#3a414a" d="M177-190C167-65 218 103 67 71c-23-6-38-20-44-43l32-5c15 47 100 32 89-28v-30C133-14 115 1 83 1 29 1 15-40 15-95c0-56 16-97 71-98 29-1 48 16 59 35 1-10 0-23 2-32h30zM94-22c36 0 50-32 50-73 0-42-14-75-50-75-39 0-46 34-46 75s6 73 46 73" id="aJ"/><path fill="#3a414a" d="M141-36C126-15 110 5 73 4 37 3 15-17 15-53c-1-64 63-63 125-63 3-35-9-54-41-54-24 1-41 7-42 31l-33-3c5-37 33-52 76-52 45 0 72 20 72 64v82c-1 20 7 32 28 27v20c-31 9-61-2-59-35zM48-53c0 20 12 33 32 33 41-3 63-29 60-74-43 2-92-5-92 41" id="aK"/><path fill="#3a414a" d="M24-231v-30h32v30H24zM24 0v-190h32V0H24" id="aL"/><g id="m"><use transform="matrix(0.06172839506172837,0,0,0.06172839506172837,0,0)" xlink:href="#aJ"/><use transform="matrix(0.06172839506172837,0,0,0.06172839506172837,12.345679012345673,0)" xlink:href="#ap"/><use transform="matrix(0.06172839506172837,0,0,0.06172839506172837,19.69135802469135,0)" xlink:href="#aK"/><use transform="matrix(0.06172839506172837,0,0,0.06172839506172837,32.037037037037024,0)" xlink:href="#ao"/><use transform="matrix(0.06172839506172837,0,0,0.06172839506172837,44.382716049382694,0)" xlink:href="#aG"/><use transform="matrix(0.06172839506172837,0,0,0.06172839506172837,56.728395061728364,0)" xlink:href="#aL"/><use transform="matrix(0.06172839506172837,0,0,0.06172839506172837,61.60493827160491,0)" xlink:href="#az"/><use transform="matrix(0.06172839506172837,0,0,0.06172839506172837,72.71604938271602,0)" xlink:href="#aq"/></g><g id="n"><use transform="matrix(0.06172839506172837,0,0,0.06172839506172837,0,0)" xlink:href="#ak"/><use transform="matrix(0.06172839506172837,0,0,0.06172839506172837,11.111111111111107,0)" xlink:href="#al"/><use transform="matrix(0.06172839506172837,0,0,0.06172839506172837,23.45679012345678,0)" xlink:href="#am"/><use transform="matrix(0.06172839506172837,0,0,0.06172839506172837,34.567901234567884,0)" xlink:href="#an"/><use transform="matrix(0.06172839506172837,0,0,0.06172839506172837,46.913580246913554,0)" xlink:href="#ap"/><use transform="matrix(0.06172839506172837,0,0,0.06172839506172837,54.25925925925923,0)" xlink:href="#al"/><use transform="matrix(0.06172839506172837,0,0,0.06172839506172837,66.60493827160491,0)" xlink:href="#aw"/><use transform="matrix(0.06172839506172837,0,0,0.06172839506172837,71.48148148148145,0)" xlink:href="#al"/><use transform="matrix(0.06172839506172837,0,0,0.06172839506172837,83.82716049382712,0)" xlink:href="#aK"/><use transform="matrix(0.06172839506172837,0,0,0.06172839506172837,96.17283950617279,0)" xlink:href="#aq"/><use transform="matrix(0.06172839506172837,0,0,0.06172839506172837,107.28395061728389,0)" xlink:href="#al"/><use transform="matrix(0.06172839506172837,0,0,0.06172839506172837,119.62962962962956,0)" xlink:href="#ar"/><use transform="matrix(0.06172839506172837,0,0,0.06172839506172837,126.97530864197523,0)" xlink:href="#as"/></g><path fill="#3a414a" d="M117-194c89-4 53 116 60 194h-32v-121c0-31-8-49-39-48C34-167 62-67 57 0H25l-1-190h30c1 10-1 24 2 32 11-22 29-35 61-36" id="aM"/><g id="o"><use transform="matrix(0.06172839506172837,0,0,0.06172839506172837,0,0)" xlink:href="#aM"/><use transform="matrix(0.06172839506172837,0,0,0.06172839506172837,12.345679012345673,0)" xlink:href="#aH"/><use transform="matrix(0.06172839506172837,0,0,0.06172839506172837,24.691358024691347,0)" xlink:href="#aM"/><use transform="matrix(0.06172839506172837,0,0,0.06172839506172837,37.037037037037024,0)" xlink:href="#al"/></g><path fill="#3a414a" d="M185-189c-5-48-123-54-124 2 14 75 158 14 163 119 3 78-121 87-175 55-17-10-28-26-33-46l33-7c5 56 141 63 141-1 0-78-155-14-162-118-5-82 145-84 179-34 5 7 8 16 11 25" id="aN"/><g id="p"><use transform="matrix(0.09876543209876498,0,0,0.09876543209876498,0,0)" xlink:href="#aN"/><use transform="matrix(0.09876543209876498,0,0,0.09876543209876498,23.703703703703596,0)" xlink:href="#aa"/><use transform="matrix(0.09876543209876498,0,0,0.09876543209876498,47.40740740740719,0)" xlink:href="#X"/></g><path fill="#3a414a" d="M266 0h-40l-56-210L115 0H75L2-248h35L96-30l15-64 43-154h32l59 218 59-218h35" id="aO"/><path fill="#3a414a" d="M33 0v-248h34V0H33" id="aP"/><path fill="#3a414a" d="M190 0L58-211 59 0H30v-248h39L202-35l-2-213h31V0h-41" id="aQ"/><path fill="#3a414a" d="M140-251c81 0 123 46 123 126C263-46 219 4 140 4 59 4 17-45 17-125s42-126 123-126zm0 227c63 0 89-41 89-101s-29-99-89-99c-61 0-89 39-89 99S79-25 140-24" id="aR"/><g id="q"><use transform="matrix(0.09876543209876498,0,0,0.09876543209876498,0,0)" xlink:href="#aO"/><use transform="matrix(0.09876543209876498,0,0,0.09876543209876498,33.48148148148133,0)" xlink:href="#aP"/><use transform="matrix(0.09876543209876498,0,0,0.09876543209876498,43.358024691357826,0)" xlink:href="#aQ"/><use transform="matrix(0.09876543209876498,0,0,0.09876543209876498,68.93827160493795,0)" xlink:href="#ac"/><use transform="matrix(0.09876543209876498,0,0,0.09876543209876498,94.51851851851808,0)" xlink:href="#aR"/><use transform="matrix(0.09876543209876498,0,0,0.09876543209876498,122.17283950617227,0)" xlink:href="#aO"/></g><g id="r"><use transform="matrix(0.06172839506172837,0,0,0.06172839506172837,0,0)" xlink:href="#ae"/><use transform="matrix(0.06172839506172837,0,0,0.06172839506172837,14.81481481481481,0)" xlink:href="#af"/><use transform="matrix(0.06172839506172837,0,0,0.06172839506172837,27.160493827160483,0)" xlink:href="#ag"/><use transform="matrix(0.06172839506172837,0,0,0.06172839506172837,39.506172839506156,0)" xlink:href="#ah"/><use transform="matrix(0.06172839506172837,0,0,0.06172839506172837,53.02469135802467,0)" xlink:href="#ai"/><use transform="matrix(0.06172839506172837,0,0,0.06172839506172837,60.370370370370345,0)" xlink:href="#aj"/></g><path fill="#3a414a" d="M210-169c-67 3-38 105-44 169h-31v-121c0-29-5-50-35-48C34-165 62-65 56 0H25l-1-190h30c1 10-1 24 2 32 10-44 99-50 107 0 11-21 27-35 58-36 85-2 47 119 55 194h-31v-121c0-29-5-49-35-48" id="aS"/><path fill="#3a414a" d="M84 4C-5 8 30-112 23-190h32v120c0 31 7 50 39 49 72-2 45-101 50-169h31l1 190h-30c-1-10 1-25-2-33-11 22-28 36-60 37" id="aT"/><g id="s"><use transform="matrix(0.06172839506172837,0,0,0.06172839506172837,0,0)" xlink:href="#aS"/><use transform="matrix(0.06172839506172837,0,0,0.06172839506172837,18.456790123456784,0)" xlink:href="#aH"/><use transform="matrix(0.06172839506172837,0,0,0.06172839506172837,30.802469135802458,0)" xlink:href="#aT"/><use transform="matrix(0.06172839506172837,0,0,0.06172839506172837,43.14814814814813,0)" xlink:href="#aq"/><use transform="matrix(0.06172839506172837,0,0,0.06172839506172837,54.25925925925924,0)" xlink:href="#al"/><use transform="matrix(0.06172839506172837,0,0,0.06172839506172837,66.60493827160491,0)" xlink:href="#an"/><use transform="matrix(0.06172839506172837,0,0,0.06172839506172837,78.95061728395058,0)" xlink:href="#az"/><use transform="matrix(0.06172839506172837,0,0,0.06172839506172837,90.06172839506169,0)" xlink:href="#aw"/><use transform="matrix(0.06172839506172837,0,0,0.06172839506172837,94.93827160493824,0)" xlink:href="#aL"/><use transform="matrix(0.06172839506172837,0,0,0.06172839506172837,99.81481481481478,0)" xlink:href="#az"/><use transform="matrix(0.06172839506172837,0,0,0.06172839506172837,110.9259259259259,0)" xlink:href="#ak"/><use transform="matrix(0.06172839506172837,0,0,0.06172839506172837,122.03703703703701,0)" xlink:href="#ar"/><use transform="matrix(0.06172839506172837,0,0,0.06172839506172837,129.38271604938268,0)" xlink:href="#as"/></g><g id="t"><use transform="matrix(0.06172839506172837,0,0,0.06172839506172837,0,0)" xlink:href="#at"/><use transform="matrix(0.06172839506172837,0,0,0.06172839506172837,15.987654320987648,0)" xlink:href="#au"/><use transform="matrix(0.06172839506172837,0,0,0.06172839506172837,29.506172839506164,0)" xlink:href="#ah"/><use transform="matrix(0.06172839506172837,0,0,0.06172839506172837,43.024691358024675,0)" xlink:href="#ai"/><use transform="matrix(0.06172839506172837,0,0,0.06172839506172837,50.37037037037035,0)" xlink:href="#ag"/><use transform="matrix(0.06172839506172837,0,0,0.06172839506172837,62.71604938271602,0)" xlink:href="#av"/><use transform="matrix(0.06172839506172837,0,0,0.06172839506172837,75.06172839506169,0)" xlink:href="#ai"/><use transform="matrix(0.06172839506172837,0,0,0.06172839506172837,82.40740740740736,0)" xlink:href="#aj"/></g><g id="u"><use transform="matrix(0.06172839506172837,0,0,0.06172839506172837,0,0)" xlink:href="#aw"/><use transform="matrix(0.06172839506172837,0,0,0.06172839506172837,4.876543209876541,0)" xlink:href="#al"/><use transform="matrix(0.06172839506172837,0,0,0.06172839506172837,17.222222222222214,0)" xlink:href="#ax"/><use transform="matrix(0.06172839506172837,0,0,0.06172839506172837,23.39506172839505,0)" xlink:href="#ay"/></g><path fill="#3a414a" d="M115-194c53 0 69 39 70 98 0 66-23 100-70 100C84 3 66-7 56-30L54 0H23l1-261h32v101c10-23 28-34 59-34zm-8 174c40 0 45-34 45-75 0-40-5-75-45-74-42 0-51 32-51 76 0 43 10 73 51 73" id="aU"/><g id="v"><use transform="matrix(0.06172839506172837,0,0,0.06172839506172837,0,0)" xlink:href="#aU"/><use transform="matrix(0.06172839506172837,0,0,0.06172839506172837,12.345679012345673,0)" xlink:href="#aT"/><use transform="matrix(0.06172839506172837,0,0,0.06172839506172837,24.691358024691347,0)" xlink:href="#ay"/><use transform="matrix(0.06172839506172837,0,0,0.06172839506172837,30.864197530864182,0)" xlink:href="#ay"/><use transform="matrix(0.06172839506172837,0,0,0.06172839506172837,37.03703703703702,0)" xlink:href="#aH"/><use transform="matrix(0.06172839506172837,0,0,0.06172839506172837,49.382716049382694,0)" xlink:href="#aM"/></g><path fill="#3a414a" d="M85-194c31 0 48 13 60 33l-1-100h32l1 261h-30c-2-10 0-23-3-31C134-8 116 4 85 4 32 4 16-35 15-94c0-66 23-100 70-100zm9 24c-40 0-46 34-46 75 0 40 6 74 45 74 42 0 51-32 51-76 0-42-9-74-50-73" id="aV"/><g id="w"><use transform="matrix(0.06172839506172837,0,0,0.06172839506172837,0,0)" xlink:href="#ao"/><use transform="matrix(0.06172839506172837,0,0,0.06172839506172837,12.345679012345673,0)" xlink:href="#ap"/><use transform="matrix(0.06172839506172837,0,0,0.06172839506172837,19.69135802469135,0)" xlink:href="#al"/><use transform="matrix(0.06172839506172837,0,0,0.06172839506172837,32.037037037037024,0)" xlink:href="#aq"/><use transform="matrix(0.06172839506172837,0,0,0.06172839506172837,43.14814814814813,0)" xlink:href="#aq"/><use transform="matrix(0.06172839506172837,0,0,0.06172839506172837,54.25925925925924,0)" xlink:href="#al"/><use transform="matrix(0.06172839506172837,0,0,0.06172839506172837,66.60493827160491,0)" xlink:href="#aV"/></g><g id="x"><use transform="matrix(0.06172839506172837,0,0,0.06172839506172837,0,0)" xlink:href="#aA"/><use transform="matrix(0.06172839506172837,0,0,0.06172839506172837,14.81481481481481,0)" xlink:href="#aB"/><use transform="matrix(0.06172839506172837,0,0,0.06172839506172837,20.987654320987644,0)" xlink:href="#aC"/><use transform="matrix(0.06172839506172837,0,0,0.06172839506172837,34.506172839506156,0)" xlink:href="#ag"/></g><g id="y"><use transform="matrix(0.06172839506172837,0,0,0.06172839506172837,0,0)" xlink:href="#ae"/><use transform="matrix(0.06172839506172837,0,0,0.06172839506172837,14.81481481481481,0)" xlink:href="#aD"/><use transform="matrix(0.06172839506172837,0,0,0.06172839506172837,22.160493827160487,0)" xlink:href="#aD"/><use transform="matrix(0.06172839506172837,0,0,0.06172839506172837,29.506172839506164,0)" xlink:href="#ag"/><use transform="matrix(0.06172839506172837,0,0,0.06172839506172837,41.85185185185183,0)" xlink:href="#aE"/><use transform="matrix(0.06172839506172837,0,0,0.06172839506172837,54.1975308641975,0)" xlink:href="#ai"/><use transform="matrix(0.06172839506172837,0,0,0.06172839506172837,61.54320987654318,0)" xlink:href="#aF"/><use transform="matrix(0.06172839506172837,0,0,0.06172839506172837,73.88888888888886,0)" xlink:href="#aj"/></g><g id="z"><use transform="matrix(0.06172839506172837,0,0,0.06172839506172837,0,0)" xlink:href="#az"/><use transform="matrix(0.06172839506172837,0,0,0.06172839506172837,11.111111111111107,0)" xlink:href="#aG"/><use transform="matrix(0.06172839506172837,0,0,0.06172839506172837,23.45679012345678,0)" xlink:href="#aK"/><use transform="matrix(0.06172839506172837,0,0,0.06172839506172837,35.802469135802454,0)" xlink:href="#aM"/><use transform="matrix(0.06172839506172837,0,0,0.06172839506172837,48.148148148148124,0)" xlink:href="#aJ"/><use transform="matrix(0.06172839506172837,0,0,0.06172839506172837,60.493827160493794,0)" xlink:href="#al"/></g><g id="A"><use transform="matrix(0.06172839506172837,0,0,0.06172839506172837,0,0)" xlink:href="#aq"/><use transform="matrix(0.06172839506172837,0,0,0.06172839506172837,11.111111111111107,0)" xlink:href="#ay"/><use transform="matrix(0.06172839506172837,0,0,0.06172839506172837,17.283950617283942,0)" xlink:href="#aK"/><use transform="matrix(0.06172839506172837,0,0,0.06172839506172837,29.629629629629616,0)" xlink:href="#ay"/><use transform="matrix(0.06172839506172837,0,0,0.06172839506172837,35.802469135802454,0)" xlink:href="#al"/></g><g id="B"><use transform="matrix(0.06172839506172837,0,0,0.06172839506172837,0,0)" xlink:href="#aH"/><use transform="matrix(0.06172839506172837,0,0,0.06172839506172837,12.345679012345673,0)" xlink:href="#aM"/><use transform="matrix(0.06172839506172837,0,0,0.06172839506172837,24.691358024691347,0)" xlink:href="#aw"/><use transform="matrix(0.06172839506172837,0,0,0.06172839506172837,29.567901234567888,0)" xlink:href="#am"/></g><g id="C"><use transform="matrix(0.06172839506172837,0,0,0.06172839506172837,0,0)" xlink:href="#aL"/><use transform="matrix(0.06172839506172837,0,0,0.06172839506172837,4.876543209876541,0)" xlink:href="#ax"/></g><path fill="#3a414a" d="M108 0H70L1-190h34L89-25l56-165h34" id="aW"/><g id="D"><use transform="matrix(0.06172839506172837,0,0,0.06172839506172837,0,0)" xlink:href="#aK"/><use transform="matrix(0.06172839506172837,0,0,0.06172839506172837,12.345679012345673,0)" xlink:href="#az"/><use transform="matrix(0.06172839506172837,0,0,0.06172839506172837,23.45679012345678,0)" xlink:href="#ay"/><use transform="matrix(0.06172839506172837,0,0,0.06172839506172837,29.62962962962962,0)" xlink:href="#aL"/><use transform="matrix(0.06172839506172837,0,0,0.06172839506172837,34.50617283950616,0)" xlink:href="#aW"/><use transform="matrix(0.06172839506172837,0,0,0.06172839506172837,45.61728395061727,0)" xlink:href="#al"/></g><g id="E"><use transform="matrix(0.06172839506172837,0,0,0.06172839506172837,0,0)" xlink:href="#aI"/><use transform="matrix(0.06172839506172837,0,0,0.06172839506172837,15.987654320987648,0)" xlink:href="#aL"/><use transform="matrix(0.06172839506172837,0,0,0.06172839506172837,20.86419753086419,0)" xlink:href="#aM"/><use transform="matrix(0.06172839506172837,0,0,0.06172839506172837,33.20987654320986,0)" xlink:href="#aV"/><use transform="matrix(0.06172839506172837,0,0,0.06172839506172837,45.55555555555553,0)" xlink:href="#aH"/><use transform="matrix(0.06172839506172837,0,0,0.06172839506172837,57.9012345679012,0)" xlink:href="#aI"/></g><g id="F"><use transform="matrix(0.06172839506172837,0,0,0.06172839506172837,0,0)" xlink:href="#aq"/><use transform="matrix(0.06172839506172837,0,0,0.06172839506172837,11.111111111111107,0)" xlink:href="#al"/><use transform="matrix(0.06172839506172837,0,0,0.06172839506172837,23.45679012345678,0)" xlink:href="#aw"/><use transform="matrix(0.06172839506172837,0,0,0.06172839506172837,28.33333333333332,0)" xlink:href="#al"/><use transform="matrix(0.06172839506172837,0,0,0.06172839506172837,40.679012345679,0)" xlink:href="#az"/><use transform="matrix(0.06172839506172837,0,0,0.06172839506172837,51.790123456790106,0)" xlink:href="#ay"/><use transform="matrix(0.06172839506172837,0,0,0.06172839506172837,57.96296296296294,0)" xlink:href="#al"/><use transform="matrix(0.06172839506172837,0,0,0.06172839506172837,70.30864197530862,0)" xlink:href="#aV"/></g><path fill="#4c535d" d="M24-231v-30h32v30H24zM24 0v-190h32V0H24" id="aX"/><path fill="#4c535d" d="M117-194c89-4 53 116 60 194h-32v-121c0-31-8-49-39-48C34-167 62-67 57 0H25l-1-190h30c1 10-1 24 2 32 11-22 29-35 61-36" id="aY"/><g id="G"><use transform="matrix(0.06172839506172837,0,0,0.06172839506172837,0,0)" xlink:href="#aX"/><use transform="matrix(0.06172839506172837,0,0,0.06172839506172837,4.876543209876541,0)" xlink:href="#aY"/></g><path fill="#4c535d" d="M210-169c-67 3-38 105-44 169h-31v-121c0-29-5-50-35-48C34-165 62-65 56 0H25l-1-190h30c1 10-1 24 2 32 10-44 99-50 107 0 11-21 27-35 58-36 85-2 47 119 55 194h-31v-121c0-29-5-49-35-48" id="aZ"/><path fill="#4c535d" d="M100-194c62-1 85 37 85 99 1 63-27 99-86 99S16-35 15-95c0-66 28-99 85-99zM99-20c44 1 53-31 53-75 0-43-8-75-51-75s-53 32-53 75 10 74 51 75" id="ba"/><path fill="#4c535d" d="M108 0H70L1-190h34L89-25l56-165h34" id="bb"/><path fill="#4c535d" d="M177-190C167-65 218 103 67 71c-23-6-38-20-44-43l32-5c15 47 100 32 89-28v-30C133-14 115 1 83 1 29 1 15-40 15-95c0-56 16-97 71-98 29-1 48 16 59 35 1-10 0-23 2-32h30zM94-22c36 0 50-32 50-73 0-42-14-75-50-75-39 0-46 34-46 75s6 73 46 73" id="bc"/><g id="H"><use transform="matrix(0.06172839506172837,0,0,0.06172839506172837,0,0)" xlink:href="#aZ"/><use transform="matrix(0.06172839506172837,0,0,0.06172839506172837,18.456790123456784,0)" xlink:href="#ba"/><use transform="matrix(0.06172839506172837,0,0,0.06172839506172837,30.802469135802458,0)" xlink:href="#bb"/><use transform="matrix(0.06172839506172837,0,0,0.06172839506172837,41.91358024691357,0)" xlink:href="#aX"/><use transform="matrix(0.06172839506172837,0,0,0.06172839506172837,46.79012345679011,0)" xlink:href="#aY"/><use transform="matrix(0.06172839506172837,0,0,0.06172839506172837,59.13580246913578,0)" xlink:href="#bc"/></g><path fill="#4c535d" d="M135-143c-3-34-86-38-87 0 15 53 115 12 119 90S17 21 10-45l28-5c4 36 97 45 98 0-10-56-113-15-118-90-4-57 82-63 122-42 12 7 21 19 24 35" id="bd"/><path fill="#4c535d" d="M59-47c-2 24 18 29 38 22v24C64 9 27 4 27-40v-127H5v-23h24l9-43h21v43h35v23H59v120" id="be"/><path fill="#4c535d" d="M141-36C126-15 110 5 73 4 37 3 15-17 15-53c-1-64 63-63 125-63 3-35-9-54-41-54-24 1-41 7-42 31l-33-3c5-37 33-52 76-52 45 0 72 20 72 64v82c-1 20 7 32 28 27v20c-31 9-61-2-59-35zM48-53c0 20 12 33 32 33 41-3 63-29 60-74-43 2-92-5-92 41" id="bf"/><path fill="#4c535d" d="M100-194c63 0 86 42 84 106H49c0 40 14 67 53 68 26 1 43-12 49-29l28 8c-11 28-37 45-77 45C44 4 14-33 15-96c1-61 26-98 85-98zm52 81c6-60-76-77-97-28-3 7-6 17-6 28h103" id="bg"/><g id="I"><use transform="matrix(0.06172839506172837,0,0,0.06172839506172837,0,0)" xlink:href="#bd"/><use transform="matrix(0.06172839506172837,0,0,0.06172839506172837,11.111111111111107,0)" xlink:href="#be"/><use transform="matrix(0.06172839506172837,0,0,0.06172839506172837,17.283950617283942,0)" xlink:href="#bf"/><use transform="matrix(0.06172839506172837,0,0,0.06172839506172837,29.629629629629616,0)" xlink:href="#be"/><use transform="matrix(0.06172839506172837,0,0,0.06172839506172837,35.802469135802454,0)" xlink:href="#bg"/></g><g id="J"><use transform="matrix(0.06172839506172837,0,0,0.06172839506172837,0,0)" xlink:href="#ak"/><use transform="matrix(0.06172839506172837,0,0,0.06172839506172837,11.111111111111107,0)" xlink:href="#al"/><use transform="matrix(0.06172839506172837,0,0,0.06172839506172837,23.45679012345678,0)" xlink:href="#am"/><use transform="matrix(0.06172839506172837,0,0,0.06172839506172837,34.567901234567884,0)" xlink:href="#an"/><use transform="matrix(0.06172839506172837,0,0,0.06172839506172837,46.913580246913554,0)" xlink:href="#ap"/><use transform="matrix(0.06172839506172837,0,0,0.06172839506172837,54.25925925925923,0)" xlink:href="#al"/><use transform="matrix(0.06172839506172837,0,0,0.06172839506172837,66.60493827160491,0)" xlink:href="#aw"/><use transform="matrix(0.06172839506172837,0,0,0.06172839506172837,71.48148148148145,0)" xlink:href="#al"/><use transform="matrix(0.06172839506172837,0,0,0.06172839506172837,83.82716049382712,0)" xlink:href="#aK"/><use transform="matrix(0.06172839506172837,0,0,0.06172839506172837,96.17283950617279,0)" xlink:href="#aq"/><use transform="matrix(0.06172839506172837,0,0,0.06172839506172837,107.28395061728389,0)" xlink:href="#al"/><use transform="matrix(0.06172839506172837,0,0,0.06172839506172837,119.62962962962956,0)" xlink:href="#aV"/><use transform="matrix(0.06172839506172837,0,0,0.06172839506172837,131.97530864197523,0)" xlink:href="#ar"/><use transform="matrix(0.06172839506172837,0,0,0.06172839506172837,139.3209876543209,0)" xlink:href="#as"/></g><g id="K"><use transform="matrix(0.06172839506172837,0,0,0.06172839506172837,0,0)" xlink:href="#aS"/><use transform="matrix(0.06172839506172837,0,0,0.06172839506172837,18.456790123456784,0)" xlink:href="#aH"/><use transform="matrix(0.06172839506172837,0,0,0.06172839506172837,30.802469135802458,0)" xlink:href="#aT"/><use transform="matrix(0.06172839506172837,0,0,0.06172839506172837,43.14814814814813,0)" xlink:href="#aq"/><use transform="matrix(0.06172839506172837,0,0,0.06172839506172837,54.25925925925924,0)" xlink:href="#al"/><use transform="matrix(0.06172839506172837,0,0,0.06172839506172837,66.60493827160491,0)" xlink:href="#an"/><use transform="matrix(0.06172839506172837,0,0,0.06172839506172837,78.95061728395058,0)" xlink:href="#az"/><use transform="matrix(0.06172839506172837,0,0,0.06172839506172837,90.06172839506169,0)" xlink:href="#aw"/><use transform="matrix(0.06172839506172837,0,0,0.06172839506172837,94.93827160493824,0)" xlink:href="#aL"/><use transform="matrix(0.06172839506172837,0,0,0.06172839506172837,99.81481481481478,0)" xlink:href="#az"/><use transform="matrix(0.06172839506172837,0,0,0.06172839506172837,110.9259259259259,0)" xlink:href="#ak"/><use transform="matrix(0.06172839506172837,0,0,0.06172839506172837,122.03703703703701,0)" xlink:href="#ar"/><use transform="matrix(0.06172839506172837,0,0,0.06172839506172837,129.38271604938268,0)" xlink:href="#as"/></g><g id="L"><use transform="matrix(0.06172839506172837,0,0,0.06172839506172837,0,0)" xlink:href="#aU"/><use transform="matrix(0.06172839506172837,0,0,0.06172839506172837,12.345679012345673,0)" xlink:href="#aT"/><use transform="matrix(0.06172839506172837,0,0,0.06172839506172837,24.691358024691347,0)" xlink:href="#ay"/><use transform="matrix(0.06172839506172837,0,0,0.06172839506172837,30.864197530864182,0)" xlink:href="#ay"/><use transform="matrix(0.06172839506172837,0,0,0.06172839506172837,37.03703703703702,0)" xlink:href="#aH"/><use transform="matrix(0.06172839506172837,0,0,0.06172839506172837,49.382716049382694,0)" xlink:href="#aM"/></g><g id="M"><use transform="matrix(0.06172839506172837,0,0,0.06172839506172837,0,0)" xlink:href="#ap"/><use transform="matrix(0.06172839506172837,0,0,0.06172839506172837,7.345679012345676,0)" xlink:href="#al"/><use transform="matrix(0.06172839506172837,0,0,0.06172839506172837,19.69135802469135,0)" xlink:href="#aw"/><use transform="matrix(0.06172839506172837,0,0,0.06172839506172837,24.56790123456789,0)" xlink:href="#al"/><use transform="matrix(0.06172839506172837,0,0,0.06172839506172837,36.91358024691357,0)" xlink:href="#aK"/><use transform="matrix(0.06172839506172837,0,0,0.06172839506172837,49.25925925925924,0)" xlink:href="#aq"/><use transform="matrix(0.06172839506172837,0,0,0.06172839506172837,60.370370370370345,0)" xlink:href="#al"/><use transform="matrix(0.06172839506172837,0,0,0.06172839506172837,72.71604938271602,0)" xlink:href="#aV"/></g><g id="N"><use transform="matrix(0.06172839506172837,0,0,0.06172839506172837,0,0)" xlink:href="#aJ"/><use transform="matrix(0.06172839506172837,0,0,0.06172839506172837,12.345679012345673,0)" xlink:href="#al"/><use transform="matrix(0.06172839506172837,0,0,0.06172839506172837,24.691358024691347,0)" xlink:href="#ay"/></g><g id="O"><use transform="matrix(0.06172839506172837,0,0,0.06172839506172837,0,0)" xlink:href="#az"/><use transform="matrix(0.06172839506172837,0,0,0.06172839506172837,11.111111111111107,0)" xlink:href="#aT"/><use transform="matrix(0.06172839506172837,0,0,0.06172839506172837,23.45679012345678,0)" xlink:href="#ap"/><use transform="matrix(0.06172839506172837,0,0,0.06172839506172837,30.802469135802458,0)" xlink:href="#aq"/><use transform="matrix(0.06172839506172837,0,0,0.06172839506172837,41.91358024691357,0)" xlink:href="#aH"/><use transform="matrix(0.06172839506172837,0,0,0.06172839506172837,54.25925925925924,0)" xlink:href="#ap"/></g><g id="P"><use transform="matrix(0.06172839506172837,0,0,0.06172839506172837,0,0)" xlink:href="#ao"/><use transform="matrix(0.06172839506172837,0,0,0.06172839506172837,12.345679012345673,0)" xlink:href="#aH"/><use transform="matrix(0.06172839506172837,0,0,0.06172839506172837,24.691358024691347,0)" xlink:href="#aq"/><use transform="matrix(0.06172839506172837,0,0,0.06172839506172837,35.802469135802454,0)" xlink:href="#aL"/><use transform="matrix(0.06172839506172837,0,0,0.06172839506172837,40.679012345679,0)" xlink:href="#ay"/><use transform="matrix(0.06172839506172837,0,0,0.06172839506172837,46.85185185185183,0)" xlink:href="#aL"/><use transform="matrix(0.06172839506172837,0,0,0.06172839506172837,51.72839506172838,0)" xlink:href="#aH"/><use transform="matrix(0.06172839506172837,0,0,0.06172839506172837,64.07407407407405,0)" xlink:href="#aM"/></g><g id="Q"><use transform="matrix(0.06172839506172837,0,0,0.06172839506172837,0,0)" xlink:href="#ay"/><use transform="matrix(0.06172839506172837,0,0,0.06172839506172837,6.172839506172837,0)" xlink:href="#aG"/><use transform="matrix(0.06172839506172837,0,0,0.06172839506172837,18.518518518518512,0)" xlink:href="#al"/><use transform="matrix(0.06172839506172837,0,0,0.06172839506172837,30.864197530864185,0)" xlink:href="#aM"/></g><path fill="#3a414a" d="M9 0v-24l116-142H16v-24h144v24L44-24h123V0H9" id="bh"/><path fill="#3a414a" d="M68-38c1 34 0 65-14 84H32c9-13 17-26 17-46H33v-38h35" id="bi"/><g id="R"><use transform="matrix(0.06172839506172837,0,0,0.06172839506172837,0,0)" xlink:href="#bh"/><use transform="matrix(0.06172839506172837,0,0,0.06172839506172837,11.111111111111107,0)" xlink:href="#aH"/><use transform="matrix(0.06172839506172837,0,0,0.06172839506172837,23.45679012345678,0)" xlink:href="#aM"/><use transform="matrix(0.06172839506172837,0,0,0.06172839506172837,35.802469135802454,0)" xlink:href="#al"/><use transform="matrix(0.06172839506172837,0,0,0.06172839506172837,48.148148148148124,0)" xlink:href="#bi"/></g><g id="S"><use transform="matrix(0.06172839506172837,0,0,0.06172839506172837,0,0)" xlink:href="#aK"/><use transform="matrix(0.06172839506172837,0,0,0.06172839506172837,12.345679012345673,0)" xlink:href="#aM"/><use transform="matrix(0.06172839506172837,0,0,0.06172839506172837,24.691358024691347,0)" xlink:href="#aV"/></g><g id="T"><use transform="matrix(0.06172839506172837,0,0,0.06172839506172837,0,0)" xlink:href="#aq"/><use transform="matrix(0.06172839506172837,0,0,0.06172839506172837,11.111111111111107,0)" xlink:href="#al"/><use transform="matrix(0.06172839506172837,0,0,0.06172839506172837,23.45679012345678,0)" xlink:href="#ay"/></g><g id="U"><use transform="matrix(0.06172839506172837,0,0,0.06172839506172837,0,0)" xlink:href="#aI"/><use transform="matrix(0.06172839506172837,0,0,0.06172839506172837,15.987654320987648,0)" xlink:href="#aL"/><use transform="matrix(0.06172839506172837,0,0,0.06172839506172837,20.86419753086419,0)" xlink:href="#aM"/><use transform="matrix(0.06172839506172837,0,0,0.06172839506172837,33.20987654320986,0)" xlink:href="#aV"/><use transform="matrix(0.06172839506172837,0,0,0.06172839506172837,45.55555555555553,0)" xlink:href="#aH"/><use transform="matrix(0.06172839506172837,0,0,0.06172839506172837,57.9012345679012,0)" xlink:href="#aI"/></g><g id="V"><use transform="matrix(0.06172839506172837,0,0,0.06172839506172837,0,0)" xlink:href="#aJ"/><use transform="matrix(0.06172839506172837,0,0,0.06172839506172837,12.345679012345673,0)" xlink:href="#al"/><use transform="matrix(0.06172839506172837,0,0,0.06172839506172837,24.691358024691347,0)" xlink:href="#aH"/><use transform="matrix(0.06172839506172837,0,0,0.06172839506172837,37.037037037037024,0)" xlink:href="#aS"/><use transform="matrix(0.06172839506172837,0,0,0.06172839506172837,55.49382716049381,0)" xlink:href="#al"/><use transform="matrix(0.06172839506172837,0,0,0.06172839506172837,67.83950617283948,0)" xlink:href="#ay"/><use transform="matrix(0.06172839506172837,0,0,0.06172839506172837,74.01234567901231,0)" xlink:href="#ap"/><use transform="matrix(0.06172839506172837,0,0,0.06172839506172837,81.35802469135798,0)" xlink:href="#am"/></g></defs></g></svg>